<mxfile host="Electron" modified="2024-02-06T03:12:10.976Z" agent="Mozilla/5.0 (Windows NT 10.0; Win64; x64) AppleWebKit/537.36 (KHTML, like Gecko) draw.io/23.0.2 Chrome/120.0.6099.109 Electron/28.1.0 Safari/537.36" etag="h-s2YVPvVlgpdtU01YMh" version="23.0.2" type="device">
  <diagram name="Página-1" id="O4SzbeYqF_dsidnGeP0h">
    <mxGraphModel dx="4097" dy="2411" grid="1" gridSize="10" guides="1" tooltips="1" connect="1" arrows="1" fold="1" page="1" pageScale="1" pageWidth="3300" pageHeight="4681" math="0" shadow="0">
      <root>
        <mxCell id="0" />
        <mxCell id="1" parent="0" />
        <mxCell id="Tuf3w9KI-8NGBiQlnfSO-70" style="edgeStyle=orthogonalEdgeStyle;rounded=0;orthogonalLoop=1;jettySize=auto;html=1;endArrow=none;endFill=0;" parent="1" source="Tuf3w9KI-8NGBiQlnfSO-1" target="Tuf3w9KI-8NGBiQlnfSO-4" edge="1">
          <mxGeometry relative="1" as="geometry" />
        </mxCell>
        <mxCell id="Tuf3w9KI-8NGBiQlnfSO-1" value="User" style="shape=umlActor;verticalLabelPosition=bottom;verticalAlign=top;html=1;outlineConnect=0;" parent="1" vertex="1">
          <mxGeometry x="70" y="381" width="50" height="100" as="geometry" />
        </mxCell>
        <mxCell id="Tuf3w9KI-8NGBiQlnfSO-29" value="&amp;lt;&amp;lt;Include&amp;gt;&amp;gt;" style="edgeStyle=orthogonalEdgeStyle;rounded=0;orthogonalLoop=1;jettySize=auto;html=1;exitX=1;exitY=0;exitDx=0;exitDy=0;entryX=0;entryY=0.5;entryDx=0;entryDy=0;dashed=1;dashPattern=8 8;" parent="1" source="Tuf3w9KI-8NGBiQlnfSO-4" target="Tuf3w9KI-8NGBiQlnfSO-15" edge="1">
          <mxGeometry x="0.358" relative="1" as="geometry">
            <Array as="points">
              <mxPoint x="364" y="293" />
            </Array>
            <mxPoint as="offset" />
          </mxGeometry>
        </mxCell>
        <mxCell id="Tuf3w9KI-8NGBiQlnfSO-31" style="edgeStyle=orthogonalEdgeStyle;rounded=0;orthogonalLoop=1;jettySize=auto;html=1;exitX=1;exitY=1;exitDx=0;exitDy=0;entryX=0;entryY=0.5;entryDx=0;entryDy=0;dashed=1;dashPattern=8 8;" parent="1" source="Tuf3w9KI-8NGBiQlnfSO-4" edge="1">
          <mxGeometry relative="1" as="geometry">
            <Array as="points">
              <mxPoint x="364" y="531" />
              <mxPoint x="500" y="531" />
              <mxPoint x="500" y="571" />
            </Array>
            <mxPoint x="538" y="571" as="targetPoint" />
          </mxGeometry>
        </mxCell>
        <mxCell id="Tuf3w9KI-8NGBiQlnfSO-32" value="&amp;lt;&amp;lt;Include&amp;gt;&amp;gt;" style="edgeLabel;html=1;align=center;verticalAlign=middle;resizable=0;points=[];" parent="Tuf3w9KI-8NGBiQlnfSO-31" vertex="1" connectable="0">
          <mxGeometry x="-0.129" y="-2" relative="1" as="geometry">
            <mxPoint x="39" y="-2" as="offset" />
          </mxGeometry>
        </mxCell>
        <mxCell id="Tuf3w9KI-8NGBiQlnfSO-47" style="edgeStyle=orthogonalEdgeStyle;rounded=0;orthogonalLoop=1;jettySize=auto;html=1;exitX=0.5;exitY=1;exitDx=0;exitDy=0;entryX=0;entryY=0.5;entryDx=0;entryDy=0;dashed=1;dashPattern=8 8;" parent="1" source="Tuf3w9KI-8NGBiQlnfSO-4" target="Tuf3w9KI-8NGBiQlnfSO-46" edge="1">
          <mxGeometry relative="1" as="geometry" />
        </mxCell>
        <mxCell id="Tuf3w9KI-8NGBiQlnfSO-48" value="&amp;lt;&amp;lt;Include&amp;gt;&amp;gt;" style="edgeLabel;html=1;align=center;verticalAlign=middle;resizable=0;points=[];" parent="Tuf3w9KI-8NGBiQlnfSO-47" vertex="1" connectable="0">
          <mxGeometry x="0.455" y="-4" relative="1" as="geometry">
            <mxPoint x="35" y="-4" as="offset" />
          </mxGeometry>
        </mxCell>
        <mxCell id="Tuf3w9KI-8NGBiQlnfSO-71" style="edgeStyle=orthogonalEdgeStyle;rounded=0;orthogonalLoop=1;jettySize=auto;html=1;exitX=0.5;exitY=0;exitDx=0;exitDy=0;entryX=0;entryY=0.5;entryDx=0;entryDy=0;dashed=1;dashPattern=8 8;" parent="1" source="Tuf3w9KI-8NGBiQlnfSO-4" target="Tuf3w9KI-8NGBiQlnfSO-69" edge="1">
          <mxGeometry relative="1" as="geometry" />
        </mxCell>
        <mxCell id="Tuf3w9KI-8NGBiQlnfSO-72" value="&amp;lt;&amp;lt;Include&amp;gt;&amp;gt;" style="edgeLabel;html=1;align=center;verticalAlign=middle;resizable=0;points=[];" parent="Tuf3w9KI-8NGBiQlnfSO-71" vertex="1" connectable="0">
          <mxGeometry x="0.4249" y="-1" relative="1" as="geometry">
            <mxPoint x="49" y="-1" as="offset" />
          </mxGeometry>
        </mxCell>
        <mxCell id="Tuf3w9KI-8NGBiQlnfSO-4" value="Obtener Inventario con&amp;nbsp;&lt;br&gt;la información detallada" style="ellipse;whiteSpace=wrap;html=1;" parent="1" vertex="1">
          <mxGeometry x="210" y="391" width="180" height="80" as="geometry" />
        </mxCell>
        <mxCell id="Tuf3w9KI-8NGBiQlnfSO-36" value="" style="edgeStyle=orthogonalEdgeStyle;rounded=0;orthogonalLoop=1;jettySize=auto;html=1;exitX=1;exitY=0.5;exitDx=0;exitDy=0;endArrow=classic;endFill=1;" parent="1" source="Tuf3w9KI-8NGBiQlnfSO-15" target="Tuf3w9KI-8NGBiQlnfSO-20" edge="1">
          <mxGeometry x="-0.2989" relative="1" as="geometry">
            <mxPoint as="offset" />
          </mxGeometry>
        </mxCell>
        <mxCell id="Tuf3w9KI-8NGBiQlnfSO-15" value="Obtener avatar y nombre de usuario" style="ellipse;whiteSpace=wrap;align=center;html=1;" parent="1" vertex="1">
          <mxGeometry x="538" y="253" width="180" height="80" as="geometry" />
        </mxCell>
        <mxCell id="Tuf3w9KI-8NGBiQlnfSO-19" value="" style="shape=cylinder3;whiteSpace=wrap;html=1;boundedLbl=1;backgroundOutline=1;size=15;" parent="1" vertex="1">
          <mxGeometry x="1012" y="628" width="60" height="80" as="geometry" />
        </mxCell>
        <mxCell id="Tuf3w9KI-8NGBiQlnfSO-59" style="edgeStyle=orthogonalEdgeStyle;rounded=0;orthogonalLoop=1;jettySize=auto;html=1;exitX=1;exitY=0.5;exitDx=0;exitDy=0;endArrow=classic;endFill=1;" parent="1" source="Tuf3w9KI-8NGBiQlnfSO-50" target="Tuf3w9KI-8NGBiQlnfSO-20" edge="1">
          <mxGeometry relative="1" as="geometry">
            <Array as="points">
              <mxPoint x="1130" y="881" />
              <mxPoint x="1130" y="433" />
            </Array>
          </mxGeometry>
        </mxCell>
        <mxCell id="Tuf3w9KI-8NGBiQlnfSO-20" value="Steam Web API" style="shape=umlActor;verticalLabelPosition=bottom;verticalAlign=top;outlineConnect=0;fillColor=#dae8fc;strokeColor=#6c8ebf;shadow=0;labelBackgroundColor=#D4E1F5;labelBorderColor=none;" parent="1" vertex="1">
          <mxGeometry x="1016" y="381" width="52" height="100" as="geometry" />
        </mxCell>
        <mxCell id="Tuf3w9KI-8NGBiQlnfSO-40" style="edgeStyle=orthogonalEdgeStyle;rounded=0;orthogonalLoop=1;jettySize=auto;html=1;endArrow=classic;endFill=1;" parent="1" source="Tuf3w9KI-8NGBiQlnfSO-21" target="Tuf3w9KI-8NGBiQlnfSO-20" edge="1">
          <mxGeometry relative="1" as="geometry" />
        </mxCell>
        <mxCell id="Tuf3w9KI-8NGBiQlnfSO-21" value="Obtener inventario de usuario" style="ellipse;whiteSpace=wrap;align=center;html=1;" parent="1" vertex="1">
          <mxGeometry x="538" y="391" width="180" height="80" as="geometry" />
        </mxCell>
        <mxCell id="Tuf3w9KI-8NGBiQlnfSO-25" value="DataBase" style="text;html=1;strokeColor=none;fillColor=none;align=center;verticalAlign=middle;whiteSpace=wrap;rounded=0;" parent="1" vertex="1">
          <mxGeometry x="1012" y="704" width="60" height="30" as="geometry" />
        </mxCell>
        <mxCell id="Tuf3w9KI-8NGBiQlnfSO-30" value="&amp;lt;&amp;lt;Include&amp;gt;&amp;gt;" style="edgeStyle=orthogonalEdgeStyle;rounded=0;orthogonalLoop=1;jettySize=auto;html=1;entryX=0.016;entryY=0.344;entryDx=0;entryDy=0;entryPerimeter=0;dashed=1;dashPattern=8 8;" parent="1" edge="1">
          <mxGeometry x="-0.1545" y="1" relative="1" as="geometry">
            <mxPoint x="390.0035197667032" y="430.7800000000004" as="sourcePoint" />
            <mxPoint x="536.8900000000001" y="430.78" as="targetPoint" />
            <mxPoint as="offset" />
          </mxGeometry>
        </mxCell>
        <mxCell id="Tuf3w9KI-8NGBiQlnfSO-46" value="Analizar el histórico de cada &lt;br&gt;item del usuario" style="ellipse;align=center;whiteSpace=wrap;html=1;" parent="1" vertex="1">
          <mxGeometry x="538" y="672" width="180" height="80" as="geometry" />
        </mxCell>
        <mxCell id="Tuf3w9KI-8NGBiQlnfSO-52" style="rounded=0;orthogonalLoop=1;jettySize=auto;html=1;entryX=0;entryY=0.5;entryDx=0;entryDy=0;edgeStyle=orthogonalEdgeStyle;endArrow=none;endFill=0;" parent="1" source="Tuf3w9KI-8NGBiQlnfSO-49" target="Tuf3w9KI-8NGBiQlnfSO-50" edge="1">
          <mxGeometry relative="1" as="geometry" />
        </mxCell>
        <mxCell id="Tuf3w9KI-8NGBiQlnfSO-49" value="Timer" style="shape=umlActor;verticalLabelPosition=bottom;verticalAlign=top;html=1;outlineConnect=0;" parent="1" vertex="1">
          <mxGeometry x="80" y="831" width="50" height="100" as="geometry" />
        </mxCell>
        <mxCell id="Tuf3w9KI-8NGBiQlnfSO-73" style="edgeStyle=orthogonalEdgeStyle;rounded=0;orthogonalLoop=1;jettySize=auto;html=1;exitX=0.5;exitY=0;exitDx=0;exitDy=0;entryX=0.5;entryY=1;entryDx=0;entryDy=0;endArrow=classic;endFill=1;" parent="1" source="Tuf3w9KI-8NGBiQlnfSO-50" target="Tuf3w9KI-8NGBiQlnfSO-25" edge="1">
          <mxGeometry relative="1" as="geometry" />
        </mxCell>
        <mxCell id="Tuf3w9KI-8NGBiQlnfSO-69" value="Verficar que el ID tenga una estructura válida" style="ellipse;whiteSpace=wrap;align=center;html=1;" parent="1" vertex="1">
          <mxGeometry x="538" y="111" width="180" height="80" as="geometry" />
        </mxCell>
        <mxCell id="Tuf3w9KI-8NGBiQlnfSO-74" value="System" style="shape=umlFrame;whiteSpace=wrap;html=1;pointerEvents=0;recursiveResize=0;container=1;collapsible=0;width=160;" parent="1" vertex="1">
          <mxGeometry x="200" y="80" width="730" height="880" as="geometry" />
        </mxCell>
        <mxCell id="Tuf3w9KI-8NGBiQlnfSO-50" value="Actualizar base de datos &lt;br&gt;con la información histórica &lt;br&gt;del día" style="ellipse;align=center;whiteSpace=wrap;html=1;" parent="Tuf3w9KI-8NGBiQlnfSO-74" vertex="1">
          <mxGeometry x="200" y="761" width="180" height="80" as="geometry" />
        </mxCell>
        <mxCell id="FI-Qps5kKFSWfcYzK0gY-32" value="" style="ellipse;whiteSpace=wrap;align=center;html=1;" parent="Tuf3w9KI-8NGBiQlnfSO-74" vertex="1">
          <mxGeometry x="321" y="450" width="180" height="80" as="geometry" />
        </mxCell>
        <mxCell id="FI-Qps5kKFSWfcYzK0gY-33" value="Item no existe en &lt;br&gt;la base de datos" style="ellipse;whiteSpace=wrap;html=1;" parent="Tuf3w9KI-8NGBiQlnfSO-74" vertex="1">
          <mxGeometry x="552" y="430" width="110" height="60" as="geometry" />
        </mxCell>
        <mxCell id="FI-Qps5kKFSWfcYzK0gY-34" value="Existencia de&lt;br&gt;items del usuario" style="ellipse;whiteSpace=wrap;html=1;" parent="Tuf3w9KI-8NGBiQlnfSO-74" vertex="1">
          <mxGeometry x="552" y="538" width="110" height="60" as="geometry" />
        </mxCell>
        <mxCell id="FI-Qps5kKFSWfcYzK0gY-28" style="edgeStyle=orthogonalEdgeStyle;rounded=0;orthogonalLoop=1;jettySize=auto;html=1;exitX=1;exitY=1;exitDx=0;exitDy=0;entryX=0;entryY=0.5;entryDx=0;entryDy=0;dashed=1;dashPattern=8 8;" parent="Tuf3w9KI-8NGBiQlnfSO-74" source="FI-Qps5kKFSWfcYzK0gY-32" target="FI-Qps5kKFSWfcYzK0gY-34" edge="1">
          <mxGeometry relative="1" as="geometry" />
        </mxCell>
        <mxCell id="FI-Qps5kKFSWfcYzK0gY-29" value="&amp;lt;&amp;lt;Include&amp;gt;&amp;gt;" style="edgeLabel;html=1;align=center;verticalAlign=middle;resizable=0;points=[];" parent="FI-Qps5kKFSWfcYzK0gY-28" vertex="1" connectable="0">
          <mxGeometry x="-0.298" y="-3" relative="1" as="geometry">
            <mxPoint x="17" y="-12" as="offset" />
          </mxGeometry>
        </mxCell>
        <mxCell id="FI-Qps5kKFSWfcYzK0gY-35" value="&lt;font style=&quot;font-size: 8px;&quot;&gt;extension points&lt;br&gt;Existencia del item en la base de datos&lt;/font&gt;" style="text;html=1;strokeColor=none;fillColor=none;align=center;verticalAlign=middle;whiteSpace=wrap;rounded=0;" parent="Tuf3w9KI-8NGBiQlnfSO-74" vertex="1">
          <mxGeometry x="334" y="489" width="154" height="24" as="geometry" />
        </mxCell>
        <mxCell id="FI-Qps5kKFSWfcYzK0gY-36" value="" style="endArrow=none;html=1;rounded=0;exitX=0.002;exitY=0.522;exitDx=0;exitDy=0;exitPerimeter=0;entryX=1.001;entryY=0.502;entryDx=0;entryDy=0;entryPerimeter=0;" parent="Tuf3w9KI-8NGBiQlnfSO-74" target="FI-Qps5kKFSWfcYzK0gY-32" edge="1">
          <mxGeometry width="50" height="50" relative="1" as="geometry">
            <mxPoint x="320.3600000000001" y="490.7600000000001" as="sourcePoint" />
            <mxPoint x="500.5400000000004" y="490.44000000000005" as="targetPoint" />
          </mxGeometry>
        </mxCell>
        <mxCell id="FI-Qps5kKFSWfcYzK0gY-37" value="Obtener histórico de cada item del usuario" style="text;html=1;strokeColor=none;fillColor=none;align=center;verticalAlign=middle;whiteSpace=wrap;rounded=0;" parent="Tuf3w9KI-8NGBiQlnfSO-74" vertex="1">
          <mxGeometry x="340" y="462" width="140" height="30" as="geometry" />
        </mxCell>
        <mxCell id="FI-Qps5kKFSWfcYzK0gY-44" style="edgeStyle=orthogonalEdgeStyle;rounded=0;orthogonalLoop=1;jettySize=auto;html=1;exitX=0.826;exitY=0.121;exitDx=0;exitDy=0;entryX=0;entryY=0.5;entryDx=0;entryDy=0;exitPerimeter=0;dashed=1;dashPattern=8 8;" parent="Tuf3w9KI-8NGBiQlnfSO-74" source="FI-Qps5kKFSWfcYzK0gY-32" target="FI-Qps5kKFSWfcYzK0gY-33" edge="1">
          <mxGeometry relative="1" as="geometry" />
        </mxCell>
        <mxCell id="FI-Qps5kKFSWfcYzK0gY-47" value="&amp;lt;&amp;lt;Extend&amp;gt;&amp;gt;" style="edgeLabel;html=1;align=center;verticalAlign=middle;resizable=0;points=[];" parent="FI-Qps5kKFSWfcYzK0gY-44" vertex="1" connectable="0">
          <mxGeometry x="0.4553" y="2" relative="1" as="geometry">
            <mxPoint x="-19" y="-8" as="offset" />
          </mxGeometry>
        </mxCell>
        <mxCell id="Tuf3w9KI-8NGBiQlnfSO-83" style="edgeStyle=orthogonalEdgeStyle;rounded=0;orthogonalLoop=1;jettySize=auto;html=1;endArrow=none;endFill=0;" parent="1" source="Tuf3w9KI-8NGBiQlnfSO-84" target="Tuf3w9KI-8NGBiQlnfSO-92" edge="1">
          <mxGeometry relative="1" as="geometry" />
        </mxCell>
        <mxCell id="Tuf3w9KI-8NGBiQlnfSO-84" value="User" style="shape=umlActor;verticalLabelPosition=bottom;verticalAlign=top;html=1;outlineConnect=0;" parent="1" vertex="1">
          <mxGeometry x="1750" y="381" width="50" height="100" as="geometry" />
        </mxCell>
        <mxCell id="Tuf3w9KI-8NGBiQlnfSO-90" style="edgeStyle=orthogonalEdgeStyle;rounded=0;orthogonalLoop=1;jettySize=auto;html=1;exitX=0.5;exitY=0;exitDx=0;exitDy=0;entryX=0;entryY=0.5;entryDx=0;entryDy=0;dashed=1;dashPattern=8 8;" parent="1" source="Tuf3w9KI-8NGBiQlnfSO-92" target="Tuf3w9KI-8NGBiQlnfSO-109" edge="1">
          <mxGeometry relative="1" as="geometry" />
        </mxCell>
        <mxCell id="Tuf3w9KI-8NGBiQlnfSO-91" value="&amp;lt;&amp;lt;Include&amp;gt;&amp;gt;" style="edgeLabel;html=1;align=center;verticalAlign=middle;resizable=0;points=[];" parent="Tuf3w9KI-8NGBiQlnfSO-90" vertex="1" connectable="0">
          <mxGeometry x="0.4249" y="-1" relative="1" as="geometry">
            <mxPoint x="49" y="-1" as="offset" />
          </mxGeometry>
        </mxCell>
        <mxCell id="Tuf3w9KI-8NGBiQlnfSO-92" value="Obtener Inventario con&amp;nbsp;&lt;br&gt;la información detallada" style="ellipse;whiteSpace=wrap;html=1;" parent="1" vertex="1">
          <mxGeometry x="1890" y="391" width="180" height="80" as="geometry" />
        </mxCell>
        <mxCell id="Tuf3w9KI-8NGBiQlnfSO-93" value="" style="edgeStyle=orthogonalEdgeStyle;rounded=0;orthogonalLoop=1;jettySize=auto;html=1;exitX=1;exitY=0.5;exitDx=0;exitDy=0;endArrow=classic;endFill=1;" parent="1" source="Tuf3w9KI-8NGBiQlnfSO-94" target="Tuf3w9KI-8NGBiQlnfSO-98" edge="1">
          <mxGeometry x="-0.2989" relative="1" as="geometry">
            <mxPoint as="offset" />
          </mxGeometry>
        </mxCell>
        <mxCell id="Tuf3w9KI-8NGBiQlnfSO-116" style="edgeStyle=orthogonalEdgeStyle;rounded=0;orthogonalLoop=1;jettySize=auto;html=1;exitX=0.5;exitY=1;exitDx=0;exitDy=0;dashed=1;dashPattern=8 8;" parent="1" source="Tuf3w9KI-8NGBiQlnfSO-94" target="Tuf3w9KI-8NGBiQlnfSO-100" edge="1">
          <mxGeometry relative="1" as="geometry" />
        </mxCell>
        <mxCell id="Tuf3w9KI-8NGBiQlnfSO-120" value="&amp;lt;&amp;lt;Include&amp;gt;&amp;gt;" style="edgeLabel;html=1;align=center;verticalAlign=middle;resizable=0;points=[];" parent="Tuf3w9KI-8NGBiQlnfSO-116" vertex="1" connectable="0">
          <mxGeometry x="-0.2011" y="-2" relative="1" as="geometry">
            <mxPoint x="4" y="2" as="offset" />
          </mxGeometry>
        </mxCell>
        <mxCell id="Tuf3w9KI-8NGBiQlnfSO-94" value="Obtener avatar y nombre de usuario" style="ellipse;whiteSpace=wrap;align=center;html=1;" parent="1" vertex="1">
          <mxGeometry x="2218" y="253" width="180" height="80" as="geometry" />
        </mxCell>
        <mxCell id="Tuf3w9KI-8NGBiQlnfSO-95" value="" style="shape=cylinder3;whiteSpace=wrap;html=1;boundedLbl=1;backgroundOutline=1;size=15;" parent="1" vertex="1">
          <mxGeometry x="2692" y="628" width="60" height="80" as="geometry" />
        </mxCell>
        <mxCell id="Tuf3w9KI-8NGBiQlnfSO-96" style="edgeStyle=orthogonalEdgeStyle;rounded=0;orthogonalLoop=1;jettySize=auto;html=1;exitX=1;exitY=0.5;exitDx=0;exitDy=0;endArrow=classic;endFill=1;" parent="1" source="Tuf3w9KI-8NGBiQlnfSO-111" target="Tuf3w9KI-8NGBiQlnfSO-98" edge="1">
          <mxGeometry relative="1" as="geometry">
            <Array as="points">
              <mxPoint x="2810" y="881" />
              <mxPoint x="2810" y="433" />
            </Array>
          </mxGeometry>
        </mxCell>
        <mxCell id="Tuf3w9KI-8NGBiQlnfSO-98" value="Steam Web API" style="shape=umlActor;verticalLabelPosition=bottom;verticalAlign=top;outlineConnect=0;fillColor=#dae8fc;strokeColor=#6c8ebf;shadow=0;labelBackgroundColor=#D4E1F5;labelBorderColor=none;" parent="1" vertex="1">
          <mxGeometry x="2696" y="381" width="52" height="100" as="geometry" />
        </mxCell>
        <mxCell id="Tuf3w9KI-8NGBiQlnfSO-99" style="edgeStyle=orthogonalEdgeStyle;rounded=0;orthogonalLoop=1;jettySize=auto;html=1;endArrow=classic;endFill=1;" parent="1" source="Tuf3w9KI-8NGBiQlnfSO-100" target="Tuf3w9KI-8NGBiQlnfSO-98" edge="1">
          <mxGeometry relative="1" as="geometry" />
        </mxCell>
        <mxCell id="Tuf3w9KI-8NGBiQlnfSO-117" style="edgeStyle=orthogonalEdgeStyle;rounded=0;orthogonalLoop=1;jettySize=auto;html=1;exitX=0.5;exitY=1;exitDx=0;exitDy=0;dashed=1;dashPattern=8 8;" parent="1" source="Tuf3w9KI-8NGBiQlnfSO-100" target="Tuf3w9KI-8NGBiQlnfSO-102" edge="1">
          <mxGeometry relative="1" as="geometry" />
        </mxCell>
        <mxCell id="Tuf3w9KI-8NGBiQlnfSO-121" value="&amp;lt;&amp;lt;Include&amp;gt;&amp;gt;" style="edgeLabel;html=1;align=center;verticalAlign=middle;resizable=0;points=[];" parent="Tuf3w9KI-8NGBiQlnfSO-117" vertex="1" connectable="0">
          <mxGeometry x="-0.4111" relative="1" as="geometry">
            <mxPoint x="1" y="8" as="offset" />
          </mxGeometry>
        </mxCell>
        <mxCell id="Tuf3w9KI-8NGBiQlnfSO-100" value="Obtener inventario de usuario" style="ellipse;whiteSpace=wrap;align=center;html=1;" parent="1" vertex="1">
          <mxGeometry x="2218" y="391" width="180" height="80" as="geometry" />
        </mxCell>
        <mxCell id="Tuf3w9KI-8NGBiQlnfSO-118" style="edgeStyle=orthogonalEdgeStyle;rounded=0;orthogonalLoop=1;jettySize=auto;html=1;exitX=0.5;exitY=1;exitDx=0;exitDy=0;" parent="1" source="Tuf3w9KI-8NGBiQlnfSO-102" target="Tuf3w9KI-8NGBiQlnfSO-105" edge="1">
          <mxGeometry relative="1" as="geometry" />
        </mxCell>
        <mxCell id="Tuf3w9KI-8NGBiQlnfSO-122" value="&amp;lt;&amp;lt;Include&amp;gt;&amp;gt;" style="edgeLabel;html=1;align=center;verticalAlign=middle;resizable=0;points=[];" parent="Tuf3w9KI-8NGBiQlnfSO-118" vertex="1" connectable="0">
          <mxGeometry x="-0.1202" y="3" relative="1" as="geometry">
            <mxPoint as="offset" />
          </mxGeometry>
        </mxCell>
        <mxCell id="Tuf3w9KI-8NGBiQlnfSO-123" value="" style="edgeStyle=orthogonalEdgeStyle;rounded=0;orthogonalLoop=1;jettySize=auto;html=1;dashed=1;dashPattern=8 8;" parent="1" source="Tuf3w9KI-8NGBiQlnfSO-102" target="Tuf3w9KI-8NGBiQlnfSO-105" edge="1">
          <mxGeometry relative="1" as="geometry" />
        </mxCell>
        <mxCell id="FI-Qps5kKFSWfcYzK0gY-17" style="edgeStyle=orthogonalEdgeStyle;rounded=0;orthogonalLoop=1;jettySize=auto;html=1;exitX=1;exitY=1;exitDx=0;exitDy=0;entryX=0;entryY=0.5;entryDx=0;entryDy=0;dashed=1;dashPattern=8 8;" parent="1" source="Tuf3w9KI-8NGBiQlnfSO-102" target="FI-Qps5kKFSWfcYzK0gY-3" edge="1">
          <mxGeometry relative="1" as="geometry" />
        </mxCell>
        <mxCell id="FI-Qps5kKFSWfcYzK0gY-21" value="&amp;lt;&amp;lt;Include&amp;gt;&amp;gt;" style="edgeLabel;html=1;align=center;verticalAlign=middle;resizable=0;points=[];" parent="FI-Qps5kKFSWfcYzK0gY-17" vertex="1" connectable="0">
          <mxGeometry x="-0.298" y="-3" relative="1" as="geometry">
            <mxPoint x="24" y="-10" as="offset" />
          </mxGeometry>
        </mxCell>
        <mxCell id="Tuf3w9KI-8NGBiQlnfSO-102" value="" style="ellipse;whiteSpace=wrap;align=center;html=1;" parent="1" vertex="1">
          <mxGeometry x="2218" y="532" width="180" height="80" as="geometry" />
        </mxCell>
        <mxCell id="Tuf3w9KI-8NGBiQlnfSO-103" value="DataBase" style="text;html=1;strokeColor=none;fillColor=none;align=center;verticalAlign=middle;whiteSpace=wrap;rounded=0;" parent="1" vertex="1">
          <mxGeometry x="2692" y="704" width="60" height="30" as="geometry" />
        </mxCell>
        <mxCell id="Tuf3w9KI-8NGBiQlnfSO-105" value="Analizar el histórico de cada &lt;br&gt;item del usuario" style="ellipse;align=center;whiteSpace=wrap;html=1;" parent="1" vertex="1">
          <mxGeometry x="2218" y="672" width="180" height="80" as="geometry" />
        </mxCell>
        <mxCell id="Tuf3w9KI-8NGBiQlnfSO-106" style="rounded=0;orthogonalLoop=1;jettySize=auto;html=1;entryX=0;entryY=0.5;entryDx=0;entryDy=0;edgeStyle=orthogonalEdgeStyle;endArrow=none;endFill=0;" parent="1" source="Tuf3w9KI-8NGBiQlnfSO-107" target="Tuf3w9KI-8NGBiQlnfSO-111" edge="1">
          <mxGeometry relative="1" as="geometry" />
        </mxCell>
        <mxCell id="Tuf3w9KI-8NGBiQlnfSO-107" value="Timer" style="shape=umlActor;verticalLabelPosition=bottom;verticalAlign=top;html=1;outlineConnect=0;" parent="1" vertex="1">
          <mxGeometry x="1760" y="831" width="50" height="100" as="geometry" />
        </mxCell>
        <mxCell id="Tuf3w9KI-8NGBiQlnfSO-108" style="edgeStyle=orthogonalEdgeStyle;rounded=0;orthogonalLoop=1;jettySize=auto;html=1;exitX=0.5;exitY=0;exitDx=0;exitDy=0;entryX=0.5;entryY=1;entryDx=0;entryDy=0;endArrow=classic;endFill=1;" parent="1" source="Tuf3w9KI-8NGBiQlnfSO-111" target="Tuf3w9KI-8NGBiQlnfSO-103" edge="1">
          <mxGeometry relative="1" as="geometry" />
        </mxCell>
        <mxCell id="Tuf3w9KI-8NGBiQlnfSO-115" style="edgeStyle=orthogonalEdgeStyle;rounded=0;orthogonalLoop=1;jettySize=auto;html=1;exitX=0.5;exitY=1;exitDx=0;exitDy=0;dashed=1;dashPattern=8 8;" parent="1" source="Tuf3w9KI-8NGBiQlnfSO-109" target="Tuf3w9KI-8NGBiQlnfSO-94" edge="1">
          <mxGeometry relative="1" as="geometry" />
        </mxCell>
        <mxCell id="Tuf3w9KI-8NGBiQlnfSO-119" value="&amp;lt;&amp;lt;Include&amp;gt;&amp;gt;" style="edgeLabel;html=1;align=center;verticalAlign=middle;resizable=0;points=[];" parent="Tuf3w9KI-8NGBiQlnfSO-115" vertex="1" connectable="0">
          <mxGeometry x="-0.0806" y="2" relative="1" as="geometry">
            <mxPoint as="offset" />
          </mxGeometry>
        </mxCell>
        <mxCell id="Tuf3w9KI-8NGBiQlnfSO-109" value="Verficar que el ID tenga una estructura válida" style="ellipse;whiteSpace=wrap;align=center;html=1;" parent="1" vertex="1">
          <mxGeometry x="2218" y="111" width="180" height="80" as="geometry" />
        </mxCell>
        <mxCell id="Tuf3w9KI-8NGBiQlnfSO-110" value="System" style="shape=umlFrame;whiteSpace=wrap;html=1;pointerEvents=0;recursiveResize=0;container=1;collapsible=0;width=160;" parent="1" vertex="1">
          <mxGeometry x="1880" y="80" width="730" height="880" as="geometry" />
        </mxCell>
        <mxCell id="Tuf3w9KI-8NGBiQlnfSO-111" value="Actualizar base de datos &lt;br&gt;con la información histórica &lt;br&gt;del día" style="ellipse;align=center;whiteSpace=wrap;html=1;" parent="Tuf3w9KI-8NGBiQlnfSO-110" vertex="1">
          <mxGeometry x="200" y="761" width="180" height="80" as="geometry" />
        </mxCell>
        <mxCell id="FI-Qps5kKFSWfcYzK0gY-2" value="Item no existe en &lt;br&gt;la base de datos" style="ellipse;whiteSpace=wrap;html=1;" parent="Tuf3w9KI-8NGBiQlnfSO-110" vertex="1">
          <mxGeometry x="570" y="432" width="110" height="60" as="geometry" />
        </mxCell>
        <mxCell id="FI-Qps5kKFSWfcYzK0gY-3" value="Existencia de&lt;br style=&quot;border-color: var(--border-color);&quot;&gt;items del usuario" style="ellipse;whiteSpace=wrap;html=1;" parent="Tuf3w9KI-8NGBiQlnfSO-110" vertex="1">
          <mxGeometry x="570" y="540" width="110" height="60" as="geometry" />
        </mxCell>
        <mxCell id="FI-Qps5kKFSWfcYzK0gY-11" value="&lt;font style=&quot;font-size: 8px;&quot;&gt;extension points&lt;br&gt;Existencia del item en la base de datos&lt;/font&gt;" style="text;html=1;strokeColor=none;fillColor=none;align=center;verticalAlign=middle;whiteSpace=wrap;rounded=0;" parent="Tuf3w9KI-8NGBiQlnfSO-110" vertex="1">
          <mxGeometry x="352" y="491" width="154" height="24" as="geometry" />
        </mxCell>
        <mxCell id="FI-Qps5kKFSWfcYzK0gY-5" style="edgeStyle=orthogonalEdgeStyle;rounded=0;orthogonalLoop=1;jettySize=auto;html=1;exitX=1;exitY=0.5;exitDx=0;exitDy=0;curved=0;jumpStyle=none;jumpSize=10;" parent="1" source="FI-Qps5kKFSWfcYzK0gY-2" edge="1">
          <mxGeometry relative="1" as="geometry">
            <mxPoint x="2722" y="500" as="targetPoint" />
            <Array as="points">
              <mxPoint x="2722" y="540" />
            </Array>
          </mxGeometry>
        </mxCell>
        <mxCell id="FI-Qps5kKFSWfcYzK0gY-6" style="edgeStyle=orthogonalEdgeStyle;rounded=0;orthogonalLoop=1;jettySize=auto;html=1;exitX=1;exitY=0.5;exitDx=0;exitDy=0;entryX=0.05;entryY=0.265;entryDx=0;entryDy=0;entryPerimeter=0;" parent="1" source="FI-Qps5kKFSWfcYzK0gY-3" target="Tuf3w9KI-8NGBiQlnfSO-95" edge="1">
          <mxGeometry relative="1" as="geometry" />
        </mxCell>
        <mxCell id="FI-Qps5kKFSWfcYzK0gY-7" value="" style="endArrow=none;html=1;rounded=0;exitX=0.002;exitY=0.522;exitDx=0;exitDy=0;exitPerimeter=0;entryX=1.001;entryY=0.502;entryDx=0;entryDy=0;entryPerimeter=0;" parent="1" target="Tuf3w9KI-8NGBiQlnfSO-102" edge="1">
          <mxGeometry width="50" height="50" relative="1" as="geometry">
            <mxPoint x="2218.36" y="572.7600000000001" as="sourcePoint" />
            <mxPoint x="2398.5400000000004" y="572.44" as="targetPoint" />
          </mxGeometry>
        </mxCell>
        <mxCell id="FI-Qps5kKFSWfcYzK0gY-8" value="Obtener histórico de cada item del usuario" style="text;html=1;strokeColor=none;fillColor=none;align=center;verticalAlign=middle;whiteSpace=wrap;rounded=0;" parent="1" vertex="1">
          <mxGeometry x="2238" y="544" width="140" height="30" as="geometry" />
        </mxCell>
        <mxCell id="FI-Qps5kKFSWfcYzK0gY-38" style="edgeStyle=orthogonalEdgeStyle;rounded=0;orthogonalLoop=1;jettySize=auto;html=1;" parent="1" source="FI-Qps5kKFSWfcYzK0gY-33" target="Tuf3w9KI-8NGBiQlnfSO-20" edge="1">
          <mxGeometry relative="1" as="geometry" />
        </mxCell>
        <mxCell id="FI-Qps5kKFSWfcYzK0gY-39" style="edgeStyle=orthogonalEdgeStyle;rounded=0;orthogonalLoop=1;jettySize=auto;html=1;exitX=1;exitY=0.5;exitDx=0;exitDy=0;entryX=0.033;entryY=0.254;entryDx=0;entryDy=0;entryPerimeter=0;" parent="1" source="FI-Qps5kKFSWfcYzK0gY-34" target="Tuf3w9KI-8NGBiQlnfSO-19" edge="1">
          <mxGeometry relative="1" as="geometry" />
        </mxCell>
        <mxCell id="FI-Qps5kKFSWfcYzK0gY-42" style="edgeStyle=orthogonalEdgeStyle;rounded=0;orthogonalLoop=1;jettySize=auto;html=1;exitX=0.818;exitY=0.122;exitDx=0;exitDy=0;entryX=0;entryY=0.5;entryDx=0;entryDy=0;exitPerimeter=0;dashed=1;dashPattern=8 8;" parent="1" source="Tuf3w9KI-8NGBiQlnfSO-102" target="FI-Qps5kKFSWfcYzK0gY-2" edge="1">
          <mxGeometry relative="1" as="geometry" />
        </mxCell>
        <mxCell id="FI-Qps5kKFSWfcYzK0gY-43" value="&amp;lt;&amp;lt;Extend&amp;gt;&amp;gt;" style="edgeLabel;html=1;align=center;verticalAlign=middle;resizable=0;points=[];" parent="FI-Qps5kKFSWfcYzK0gY-42" vertex="1" connectable="0">
          <mxGeometry x="0.0685" y="-2" relative="1" as="geometry">
            <mxPoint y="-12" as="offset" />
          </mxGeometry>
        </mxCell>
      </root>
    </mxGraphModel>
  </diagram>
</mxfile>
